<?xml version="1.0" standalone="no"?><!DOCTYPE svg PUBLIC "-//W3C//DTD SVG 1.1//EN" "http://www.w3.org/Graphics/SVG/1.1/DTD/svg11.dtd"><svg t="1675664051228" class="icon" viewBox="0 0 1024 1024" version="1.1" xmlns="http://www.w3.org/2000/svg" p-id="7872" width="200" height="200" xmlns:xlink="http://www.w3.org/1999/xlink"><path d="M259.072 477.184h207.872v43.008H259.072zM259.072 350.208h207.872v43.008H259.072zM658.432 286.72c-6.144 0-11.264 2.048-15.36 6.144l-69.632 71.68 30.72 30.72 33.792-33.792v84.992c0 34.816-28.672 62.464-63.488 62.464v43.008c59.392 0 106.496-47.104 106.496-105.472v-84.992l35.84 34.816 28.672-30.72-72.704-71.68c-3.072-4.096-8.192-7.168-14.336-7.168zM591.872 729.088l162.816 160.768 31.744-30.72-163.84-160.768zM233.472 859.136l31.744 30.72 162.816-160.768-30.72-30.72z" p-id="7873" fill=""></path><path d="M855.04 236.544c-20.48-20.48-48.128-31.744-77.824-31.744H533.504v-68.608h-44.032V204.8H158.72c-6.144 0-11.264 2.048-15.36 6.144-4.096 4.096-6.144 9.216-6.144 15.36v330.752c0 28.672 11.264 56.32 31.744 76.8s48.128 31.744 77.824 31.744h618.496c6.144 0 11.264-2.048 15.36-6.144 4.096-4.096 6.144-10.24 6.144-15.36V313.344c0-28.672-11.264-56.32-31.744-76.8z m-12.288 382.976H246.784c-35.84 0-65.536-28.672-65.536-64.512V246.784h595.968c17.408 0 34.816 7.168 47.104 19.456 12.288 12.288 19.456 29.696 18.432 47.104v306.176z" p-id="7874" fill=""></path></svg>
