<?xml version="1.0" standalone="no"?><!DOCTYPE svg PUBLIC "-//W3C//DTD SVG 1.1//EN" "http://www.w3.org/Graphics/SVG/1.1/DTD/svg11.dtd"><svg t="1675654942519" class="icon" viewBox="0 0 1024 1024" version="1.1" xmlns="http://www.w3.org/2000/svg" p-id="6594" xmlns:xlink="http://www.w3.org/1999/xlink" width="200" height="200"><path d="M848.842105 328.757895V323.368421v-2.694737-2.694737c0-2.694737-2.694737-2.694737-2.694737-5.389473l-142.821052-134.736842H700.631579l-2.694737-2.694737h-2.694737H509.305263V132.042105c0-53.894737-43.115789-97.010526-97.010526-97.010526s-97.010526 43.115789-97.010526 97.010526v45.810527h-53.894737c-29.642105 0-53.894737 24.252632-53.894737 53.894736v706.021053c0 29.642105 24.252632 53.894737 53.894737 53.894737h536.252631c29.642105 0 53.894737-24.252632 53.894737-53.894737l-2.694737-609.010526z m-113.178947-18.863158c-16.168421 0-29.642105-13.473684-29.642105-26.947369V239.831579l75.452631 72.757895h-45.810526zM353.010526 132.042105c0-32.336842 26.947368-59.284211 59.284211-59.28421s59.284211 26.947368 59.28421 59.28421v45.810527h-115.873684V132.042105z m444.631579 819.2H261.389474c-8.084211 0-16.168421-5.389474-16.168421-16.168421V229.052632c0-8.084211 5.389474-16.168421 16.168421-16.168421h51.2v99.705263c0 51.2 40.421053 91.621053 91.621052 91.621052s91.621053-40.421053 91.621053-91.621052V261.389474c0-10.778947-8.084211-18.863158-18.863158-18.863158s-18.863158 8.084211-18.863158 18.863158v51.2c0 29.642105-24.252632 53.894737-53.894737 53.894737s-53.894737-24.252632-53.894737-53.894737V212.884211h317.978948v70.063157c0 35.031579 29.642105 64.673684 64.673684 64.673685H808.421053v587.452631c2.694737 10.778947-2.694737 16.168421-10.778948 16.168421z" fill="" p-id="6595"></path><path d="M735.663158 490.442105H458.105263c-10.778947 0-18.863158 8.084211-18.863158 18.863158s8.084211 18.863158 18.863158 18.863158h277.557895c10.778947 0 18.863158-8.084211 18.863158-18.863158s-8.084211-18.863158-18.863158-18.863158zM385.347368 460.8h-56.589473c-10.778947 0-18.863158 8.084211-18.863158 18.863158v56.589474c0 10.778947 8.084211 18.863158 18.863158 18.863157h56.589473c10.778947 0 18.863158-8.084211 18.863158-18.863157v-56.589474c0-10.778947-8.084211-18.863158-18.863158-18.863158z m-18.863157 56.589474H350.315789v-18.863158h18.863158v18.863158zM735.663158 649.431579H458.105263c-10.778947 0-18.863158 8.084211-18.863158 18.863158s8.084211 18.863158 18.863158 18.863158h277.557895c10.778947 0 18.863158-8.084211 18.863158-18.863158s-8.084211-18.863158-18.863158-18.863158zM385.347368 622.484211h-56.589473c-10.778947 0-18.863158 8.084211-18.863158 18.863157v56.589474c0 10.778947 8.084211 18.863158 18.863158 18.863158h56.589473c10.778947 0 18.863158-8.084211 18.863158-18.863158v-56.589474c0-10.778947-8.084211-18.863158-18.863158-18.863157z m-18.863157 53.894736H350.315789v-18.863158h18.863158v18.863158zM735.663158 808.421053H458.105263c-10.778947 0-18.863158 8.084211-18.863158 18.863158s8.084211 18.863158 18.863158 18.863157h277.557895c10.778947 0 18.863158-8.084211 18.863158-18.863157s-8.084211-18.863158-18.863158-18.863158zM385.347368 781.473684h-56.589473c-10.778947 0-18.863158 8.084211-18.863158 18.863158v56.589474c0 10.778947 8.084211 18.863158 18.863158 18.863158h56.589473c10.778947 0 18.863158-8.084211 18.863158-18.863158v-56.589474c0-10.778947-8.084211-18.863158-18.863158-18.863158z m-18.863157 56.589474H350.315789v-18.863158h18.863158v18.863158z" fill="" p-id="6596"></path></svg>
